#Comment line ignore any data following # character 
#Hierarchical Translation and Rotation (.htr) file 
[Header]	
#Header keywords are followed by a single value 
FileType HTR		#Single word string
DataType HTRS		#Translation followed by rotation and scale data
FileVersion 1		#integer
NumSegments 84		#integer
NumFrames 2		#integer
DataFrameRate 30		#integer, data frame rate in this file
EulerRotationOrder ZYX
CalibrationUnits mm
RotationUnits Degrees
GlobalAxisofGravity Y
BoneLengthAxis Y
ScaleFactor 1.00
[SegmentNames&Hierarchy]
#CHILD	PARENT
MASTER GLOBAL
root MASTER
chest root
L_mid_tent01 root
R_mid_tent01 root
spine01 root
Bip01_Neck chest
L_humerus chest
R_humerus chest
weapon_bone chest
Bip01_Head Bip01_Neck
eye_left_bone Bip01_Head
eye_right_bone Bip01_Head
L_forearm L_humerus
L_front_hand L_forearm
L_weapon_bone L_forearm
L_front_hand01_01 L_front_hand
L_front_hand02_01 L_front_hand
L_front_hand03_01 L_front_hand
L_front_hand01_02 L_front_hand01_01
L_front_hand02_02 L_front_hand02_01
L_front_hand03_02 L_front_hand03_01
R_forearm R_humerus
R_front_hand R_forearm
R_weapon_bone R_forearm
R_front_hand01_01 R_front_hand
R_front_hand02_01 R_front_hand
R_front_hand03_01 R_front_hand
R_front_hand01_02 R_front_hand01_01
R_front_hand02_02 R_front_hand02_01
R_front_hand03_02 R_front_hand03_01
null_rope01_connect L_mid_tent01
Rope1_Seg01 null_rope01_connect
Rope1_Seg02 Rope1_Seg01
Rope1_Seg03 Rope1_Seg02
Rope1_Seg04 Rope1_Seg03
Rope1_Seg05 Rope1_Seg04
Rope1_Seg06 Rope1_Seg05
Rope1_Seg07 Rope1_Seg06
Rope1_Seg09 Rope1_Seg07
L_mid_hand01 Rope1_Seg09
L_mid_hand02 Rope1_Seg09
L_mid_hand03 Rope1_Seg09
null_rope02_connect R_mid_tent01
Rope2_Seg01 null_rope02_connect
Rope2_Seg02 Rope2_Seg01
Rope2_Seg03 Rope2_Seg02
Rope2_Seg04 Rope2_Seg03
Rope2_Seg05 Rope2_Seg04
Rope2_Seg06 Rope2_Seg05
Rope2_Seg07 Rope2_Seg06
Rope2_Seg09 Rope2_Seg07
R_mid_hand01 Rope2_Seg09
R_mid_hand02 Rope2_Seg09
R_mid_hand03 Rope2_Seg09
spine02 spine01
spine03 spine02
pelvis spine03
null_rope03_connect pelvis
null_rope04_connect pelvis
Rope3_Seg01 null_rope03_connect
Rope3_Seg02 Rope3_Seg01
Rope3_Seg03 Rope3_Seg02
Rope3_Seg04 Rope3_Seg03
Rope3_Seg05 Rope3_Seg04
Rope3_Seg06 Rope3_Seg05
Rope3_Seg07 Rope3_Seg06
Rope3_Seg08 Rope3_Seg07
Rope3_Seg09 Rope3_Seg08
R_rear_hand01 Rope3_Seg09
R_rear_hand02 Rope3_Seg09
R_rear_hand03 Rope3_Seg09
Rope4_Seg01 null_rope04_connect
Rope4_Seg02 Rope4_Seg01
Rope4_Seg03 Rope4_Seg02
Rope4_Seg04 Rope4_Seg03
Rope4_Seg05 Rope4_Seg04
Rope4_Seg06 Rope4_Seg05
Rope4_Seg07 Rope4_Seg06
Rope4_Seg08 Rope4_Seg07
Rope4_Seg09 Rope4_Seg08
L_rear_hand01 Rope4_Seg09
L_rear_hand02 Rope4_Seg09
L_rear_hand03 Rope4_Seg09
[BasePosition]
#SegmentName Tx, Ty, Tz, Rx, Ry, Rz, BoneLength
MASTER 0.000000 0.000000 0.000000 -90.000000 0.000000 0.000000 10.000000 
root 0.000000 0.000000 0.000000 0.000000 0.000000 0.000000 10.000000 
chest 0.000000 0.000000 0.000000 0.000000 0.000000 0.000000 10.000000 
L_mid_tent01 0.000000 0.000000 0.000000 0.000000 0.000000 0.000000 10.000000 
R_mid_tent01 0.000000 0.000000 0.000000 0.000000 0.000000 0.000000 10.000000 
spine01 0.000000 0.000000 0.000000 0.000000 0.000000 0.000000 10.000000 
Bip01_Neck 0.000000 0.000000 0.000000 0.000000 0.000000 0.000000 10.000000 
L_humerus 0.000000 0.000000 0.000000 0.000000 0.000000 0.000000 10.000000 
R_humerus 0.000000 0.000000 0.000000 0.000000 0.000000 0.000000 10.000000 
weapon_bone 0.000000 0.000000 0.000000 0.000000 0.000000 0.000000 10.000000 
Bip01_Head 0.000000 0.000000 0.000000 0.000000 0.000000 0.000000 10.000000 
eye_left_bone 0.000000 0.000000 0.000000 0.000000 0.000000 0.000000 10.000000 
eye_right_bone 0.000000 0.000000 0.000000 0.000000 0.000000 0.000000 10.000000 
L_forearm 0.000000 0.000000 0.000000 0.000000 0.000000 0.000000 10.000000 
L_front_hand 0.000000 0.000000 0.000000 0.000000 0.000000 0.000000 10.000000 
L_weapon_bone 0.000000 0.000000 0.000000 0.000000 0.000000 0.000000 10.000000 
L_front_hand01_01 0.000000 0.000000 0.000000 0.000000 0.000000 0.000000 10.000000 
L_front_hand02_01 0.000000 0.000000 0.000000 0.000000 0.000000 0.000000 10.000000 
L_front_hand03_01 0.000000 0.000000 0.000000 0.000000 0.000000 0.000000 10.000000 
L_front_hand01_02 0.000000 0.000000 0.000000 0.000000 0.000000 0.000000 10.000000 
L_front_hand02_02 0.000000 0.000000 0.000000 0.000000 0.000000 0.000000 10.000000 
L_front_hand03_02 0.000000 0.000000 0.000000 0.000000 0.000000 0.000000 10.000000 
R_forearm 0.000000 0.000000 0.000000 0.000000 0.000000 0.000000 10.000000 
R_front_hand 0.000000 0.000000 0.000000 0.000000 0.000000 0.000000 10.000000 
R_weapon_bone 0.000000 0.000000 0.000000 0.000000 0.000000 0.000000 10.000000 
R_front_hand01_01 0.000000 0.000000 0.000000 0.000000 0.000000 0.000000 10.000000 
R_front_hand02_01 0.000000 0.000000 0.000000 0.000000 0.000000 0.000000 10.000000 
R_front_hand03_01 0.000000 0.000000 0.000000 0.000000 0.000000 0.000000 10.000000 
R_front_hand01_02 0.000000 0.000000 0.000000 0.000000 0.000000 0.000000 10.000000 
R_front_hand02_02 0.000000 0.000000 0.000000 0.000000 0.000000 0.000000 10.000000 
R_front_hand03_02 0.000000 0.000000 0.000000 0.000000 0.000000 0.000000 10.000000 
null_rope01_connect 0.000000 0.000000 0.000000 0.000000 0.000000 0.000000 10.000000 
Rope1_Seg01 0.000000 0.000000 0.000000 0.000000 0.000000 0.000000 10.000000 
Rope1_Seg02 0.000000 0.000000 0.000000 0.000000 0.000000 0.000000 10.000000 
Rope1_Seg03 0.000000 0.000000 0.000000 0.000000 0.000000 0.000000 10.000000 
Rope1_Seg04 0.000000 0.000000 0.000000 0.000000 0.000000 0.000000 10.000000 
Rope1_Seg05 0.000000 0.000000 0.000000 0.000000 0.000000 0.000000 10.000000 
Rope1_Seg06 0.000000 0.000000 0.000000 0.000000 0.000000 0.000000 10.000000 
Rope1_Seg07 0.000000 0.000000 0.000000 0.000000 0.000000 0.000000 10.000000 
Rope1_Seg09 0.000000 0.000000 0.000000 0.000000 0.000000 0.000000 10.000000 
L_mid_hand01 0.000000 0.000000 0.000000 0.000000 0.000000 0.000000 10.000000 
L_mid_hand02 0.000000 0.000000 0.000000 0.000000 0.000000 0.000000 10.000000 
L_mid_hand03 0.000000 0.000000 0.000000 0.000000 0.000000 0.000000 10.000000 
null_rope02_connect 0.000000 0.000000 0.000000 0.000000 0.000000 0.000000 10.000000 
Rope2_Seg01 0.000000 0.000000 0.000000 0.000000 0.000000 0.000000 10.000000 
Rope2_Seg02 0.000000 0.000000 0.000000 0.000000 0.000000 0.000000 10.000000 
Rope2_Seg03 0.000000 0.000000 0.000000 0.000000 0.000000 0.000000 10.000000 
Rope2_Seg04 0.000000 0.000000 0.000000 0.000000 0.000000 0.000000 10.000000 
Rope2_Seg05 0.000000 0.000000 0.000000 0.000000 0.000000 0.000000 10.000000 
Rope2_Seg06 0.000000 0.000000 0.000000 0.000000 0.000000 0.000000 10.000000 
Rope2_Seg07 0.000000 0.000000 0.000000 0.000000 0.000000 0.000000 10.000000 
Rope2_Seg09 0.000000 0.000000 0.000000 0.000000 0.000000 0.000000 10.000000 
R_mid_hand01 0.000000 0.000000 0.000000 0.000000 0.000000 0.000000 10.000000 
R_mid_hand02 0.000000 0.000000 0.000000 0.000000 0.000000 0.000000 10.000000 
R_mid_hand03 0.000000 0.000000 0.000000 0.000000 0.000000 0.000000 10.000000 
spine02 0.000000 0.000000 0.000000 0.000000 0.000000 0.000000 10.000000 
spine03 0.000000 0.000000 0.000000 0.000000 0.000000 0.000000 10.000000 
pelvis 0.000000 0.000000 0.000000 0.000000 0.000000 0.000000 10.000000 
null_rope03_connect 0.000000 0.000000 0.000000 0.000000 0.000000 0.000000 10.000000 
null_rope04_connect 0.000000 0.000000 0.000000 0.000000 0.000000 0.000000 10.000000 
Rope3_Seg01 0.000000 0.000000 0.000000 0.000000 0.000000 0.000000 10.000000 
Rope3_Seg02 0.000000 0.000000 0.000000 0.000000 0.000000 0.000000 10.000000 
Rope3_Seg03 0.000000 0.000000 0.000000 0.000000 0.000000 0.000000 10.000000 
Rope3_Seg04 0.000000 0.000000 0.000000 0.000000 0.000000 0.000000 10.000000 
Rope3_Seg05 0.000000 0.000000 0.000000 0.000000 0.000000 0.000000 10.000000 
Rope3_Seg06 0.000000 0.000000 0.000000 0.000000 0.000000 0.000000 10.000000 
Rope3_Seg07 0.000000 0.000000 0.000000 0.000000 0.000000 0.000000 10.000000 
Rope3_Seg08 0.000000 0.000000 0.000000 0.000000 0.000000 0.000000 10.000000 
Rope3_Seg09 0.000000 0.000000 0.000000 0.000000 0.000000 0.000000 10.000000 
R_rear_hand01 0.000000 0.000000 0.000000 0.000000 0.000000 0.000000 10.000000 
R_rear_hand02 0.000000 0.000000 0.000000 0.000000 0.000000 0.000000 10.000000 
R_rear_hand03 0.000000 0.000000 0.000000 0.000000 0.000000 0.000000 10.000000 
Rope4_Seg01 0.000000 0.000000 0.000000 0.000000 0.000000 0.000000 10.000000 
Rope4_Seg02 0.000000 0.000000 0.000000 0.000000 0.000000 0.000000 10.000000 
Rope4_Seg03 0.000000 0.000000 0.000000 0.000000 0.000000 0.000000 10.000000 
Rope4_Seg04 0.000000 0.000000 0.000000 0.000000 0.000000 0.000000 10.000000 
Rope4_Seg05 0.000000 0.000000 0.000000 0.000000 0.000000 0.000000 10.000000 
Rope4_Seg06 0.000000 0.000000 0.000000 0.000000 0.000000 0.000000 10.000000 
Rope4_Seg07 0.000000 0.000000 0.000000 0.000000 0.000000 0.000000 10.000000 
Rope4_Seg08 0.000000 0.000000 0.000000 0.000000 0.000000 0.000000 10.000000 
Rope4_Seg09 0.000000 0.000000 0.000000 0.000000 0.000000 0.000000 10.000000 
L_rear_hand01 0.000000 0.000000 0.000000 0.000000 0.000000 0.000000 10.000000 
L_rear_hand02 0.000000 0.000000 0.000000 0.000000 0.000000 0.000000 10.000000 
L_rear_hand03 0.000000 0.000000 0.000000 0.000000 0.000000 0.000000 10.000000 
#Beginning of Data. Separated by tabs
#Fr	Tx	Ty	Tz	Rx	Ry	Rz	SF
[MASTER]
55 0.000000 0.000000 0.000000 0.001660 0.001660 0.001660 0.000000
56 0.000000 0.000000 0.000000 0.001660 0.001660 0.001660 0.000000
[root]
55 -34.184891 -58.779915 1588.305176 -108.467842 21.609791 -89.948883 1589.760010
56 -33.569408 -59.803547 1582.286743 -108.516350 22.033243 -90.095322 1583.772339
[chest]
55 -86.836594 -33.005978 -30.127224 -2.145468 -9.217001 -178.910614 97.660828
56 -86.836586 -33.005978 -30.127224 -2.145468 -9.217001 -178.910614 97.660828
[L_mid_tent01]
55 27.299469 22.177580 -249.918289 -6.206942 3.342774 70.343925 252.381180
56 27.299467 22.177580 -249.918289 -6.633142 3.620885 69.986427 252.381180
[R_mid_tent01]
55 23.228794 24.509907 226.238495 -176.121445 -11.755657 65.924164 228.744751
56 23.228794 24.509907 226.238495 -176.126877 -11.402694 65.949303 228.744751
[spine01]
55 -0.361383 -0.195265 0.000000 -0.000001 -0.000007 22.052340 0.410763
56 -0.361383 -0.195265 0.000000 -0.000001 -0.000007 22.052340 0.410763
[Bip01_Neck]
55 165.484543 71.581718 0.000119 175.896118 1.177290 24.871183 180.302734
56 165.484543 71.581718 0.000119 175.896118 1.177290 24.871183 180.302734
[L_humerus]
55 -13.983130 -135.272980 -120.471481 -168.517593 36.033752 -113.483025 181.680161
56 -13.983130 -135.272980 -120.471481 -168.517593 36.033752 -113.483025 181.680161
[R_humerus]
55 -13.983309 -135.273102 125.287651 -179.588654 -28.895136 -122.030510 184.909012
56 -13.983309 -135.273102 125.287651 -179.588654 -28.895136 -122.030510 184.909012
[weapon_bone]
55 235.964890 -300.705902 0.000000 0.000000 -89.951546 -128.212341 382.234833
56 235.964890 -300.705902 0.000000 0.000000 -89.951546 -128.212341 382.234833
[Bip01_Head]
55 189.519821 179.130295 22.124929 -23.626308 5.787232 14.654977 261.715363
56 189.519821 179.130310 22.124931 -23.626308 5.787232 14.654977 261.715363
[eye_left_bone]
55 -24.626970 125.451866 -64.772606 0.000000 -90.000000 -99.840431 143.318359
56 -24.626970 125.451866 -64.772606 0.000000 -90.000000 -99.840431 143.318359
[eye_right_bone]
55 -24.626970 125.451866 64.327362 0.000000 -89.965736 80.156380 143.117676
56 -24.626970 125.451866 64.327362 0.000000 -89.965736 80.156380 143.117676
[L_forearm]
55 322.776093 0.000000 -0.000119 0.000017 0.002347 -89.149834 322.776093
56 322.776093 0.000000 -0.000119 0.000017 0.002347 -89.149834 322.776093
[L_front_hand]
55 241.149185 -0.042021 -3.300071 -179.659958 -2.242151 -0.019832 241.171753
56 241.149185 -0.042021 -3.300071 -179.659958 -2.242151 -0.019832 241.171753
[L_weapon_bone]
55 156.183838 0.000000 0.000000 0.000014 0.000007 0.000001 156.183838
56 156.183838 0.000000 0.000000 0.000014 0.000007 0.000001 156.183838
[L_front_hand01_01]
55 86.095154 20.947098 -0.655860 -0.366594 -0.477154 75.385574 88.609184
56 86.095154 20.947098 -0.655860 -0.366594 -0.477154 75.385574 88.609184
[L_front_hand02_01]
55 86.935165 -11.437475 24.513514 154.399796 -59.883835 -61.369587 91.046425
56 86.935165 -11.437475 24.513514 154.399796 -59.883835 -61.369587 91.046425
[L_front_hand03_01]
55 86.637497 -14.123976 -20.424902 -153.913849 58.118122 -62.702866 90.126129
56 86.637497 -14.123976 -20.424902 -153.913849 58.118122 -62.702866 90.126129
[L_front_hand01_02]
55 71.020905 -0.000179 0.000030 0.000334 -0.002323 -106.379684 71.020905
56 71.020905 -0.000179 0.000030 0.000334 -0.002323 -106.379684 71.020905
[L_front_hand02_02]
55 71.020927 -0.000119 0.000060 0.000334 -0.002323 -106.379684 71.020927
56 71.020927 -0.000119 0.000060 0.000334 -0.002323 -106.379684 71.020927
[L_front_hand03_02]
55 71.020905 -0.000060 0.000060 0.000334 -0.002323 -106.379684 71.020905
56 71.020905 -0.000060 0.000060 0.000334 -0.002323 -106.379684 71.020905
[R_forearm]
55 322.776428 -0.000060 0.000030 0.213197 0.007525 -93.425262 322.776428
56 322.776428 -0.000060 0.000030 0.213197 0.007525 -93.425262 322.776428
[R_front_hand]
55 238.847015 -0.006795 2.210259 -0.270529 1.703932 2.322530 238.857239
56 238.847015 -0.006795 2.210259 -0.270529 1.703932 2.322530 238.857239
[R_weapon_bone]
55 155.664093 0.002503 -0.000030 0.003487 0.001180 -90.988930 155.664078
56 155.664093 0.002503 -0.000030 0.003487 0.001180 -90.988930 155.664078
[R_front_hand01_01]
55 87.624611 14.231146 22.918642 -154.633499 -59.950619 61.746044 91.683487
56 87.624611 14.231146 22.918642 -154.633499 -59.950619 61.746044 91.683487
[R_front_hand02_01]
55 89.356956 14.367283 -19.491137 154.602661 58.302856 63.744389 92.579636
56 89.356956 14.367283 -19.491137 154.602661 58.302849 63.744389 92.579636
[R_front_hand03_01]
55 87.286232 -22.307278 -0.143439 0.162155 -0.423168 -75.767921 90.091743
56 87.286232 -22.307278 -0.143439 0.162155 -0.423168 -75.767921 90.091743
[R_front_hand01_02]
55 71.020905 0.000060 0.000119 0.002323 -0.000334 106.381714 71.020905
56 71.020905 0.000060 0.000119 0.002323 -0.000334 106.381714 71.020905
[R_front_hand02_02]
55 71.020844 -0.000030 -0.000119 0.002323 -0.000334 106.381714 71.020836
56 71.020844 -0.000030 -0.000119 0.002323 -0.000334 106.381714 71.020836
[R_front_hand03_02]
55 71.020905 0.000000 0.000030 0.002323 -0.000334 106.381714 71.020905
56 71.020905 0.000000 0.000030 0.002323 -0.000334 106.381714 71.020905
[null_rope01_connect]
55 328.732483 0.000000 -0.000238 146.690765 -65.821388 -149.597549 328.732483
56 328.732483 0.000000 -0.000238 146.106262 -65.380219 -149.176590 328.732483
[Rope1_Seg01]
55 0.000000 0.000000 0.000000 -167.926270 57.456898 -142.963867 0.000000
56 0.000000 0.000000 0.000000 -172.706512 56.264175 -145.654953 0.000000
[Rope1_Seg02]
55 139.999863 -0.000179 0.000000 10.096908 -2.739508 -7.088087 139.999863
56 139.999863 -0.000179 0.000000 10.821644 -2.645131 -7.742732 139.999863
[Rope1_Seg03]
55 139.999924 0.000060 -0.000060 16.115877 -5.955910 -8.490398 139.999924
56 139.999924 0.000060 -0.000060 17.715096 -6.069304 -9.327909 139.999924
[Rope1_Seg04]
55 139.999924 -0.000060 -0.000119 20.085779 -10.602433 -8.481791 139.999924
56 139.999924 -0.000060 -0.000119 21.934307 -11.297781 -9.092213 139.999924
[Rope1_Seg05]
55 139.999832 0.000119 -0.000060 -0.763288 4.521215 -4.568491 139.999832
56 139.999832 0.000119 -0.000060 -0.757898 4.398301 -4.428579 139.999832
[Rope1_Seg06]
55 139.999954 0.000119 -0.000060 -3.204008 3.998510 -2.209398 139.999954
56 139.999954 0.000119 -0.000060 -3.934331 4.402080 -2.185095 139.999954
[Rope1_Seg07]
55 139.999985 0.000060 0.000000 -0.170173 1.226409 -1.266360 139.999985
56 139.999985 0.000060 0.000000 -0.363567 1.303513 -1.234062 139.999985
[Rope1_Seg09]
55 121.602913 0.000119 -0.000089 -89.793175 -1.359789 0.847147 121.602913
56 121.602913 0.000119 -0.000089 -89.793175 -1.359789 0.847147 121.602913
[L_mid_hand01]
55 103.859421 1.038730 8.195221 106.855484 -31.239275 -9.461397 104.187431
56 103.859421 1.038730 8.195221 106.855484 -31.239275 -9.461397 104.187431
[L_mid_hand02]
55 105.572853 -4.139662 -10.864139 -142.331345 25.752670 -28.774628 106.211075
56 105.572853 -4.139662 -10.864139 -142.331345 25.752670 -28.774628 106.211075
[L_mid_hand03]
55 104.641464 17.579376 -3.913581 -16.122810 9.734291 34.223598 106.179977
56 104.641464 17.579376 -3.913581 -16.122810 9.734291 34.223598 106.179977
[null_rope02_connect]
55 328.732849 0.000179 -0.000119 -33.124344 83.690216 145.002823 328.732849
56 328.732849 0.000179 -0.000119 -30.653357 83.427948 147.893997 328.732849
[Rope2_Seg01]
55 0.000076 0.000112 0.000153 17.853931 84.781281 130.879456 0.000204
56 0.000076 0.000112 0.000153 17.132364 84.278511 130.120972 0.000204
[Rope2_Seg02]
55 139.999741 -0.000060 -0.000119 -2.240766 9.621799 5.133192 139.999756
56 139.999741 -0.000060 -0.000119 -2.166472 9.725610 5.116267 139.999756
[Rope2_Seg03]
55 140.000107 0.000030 0.000000 -5.830654 15.085505 9.457791 140.000107
56 140.000107 0.000030 0.000000 -5.791258 15.397720 9.500630 140.000107
[Rope2_Seg04]
55 139.999802 0.000000 -0.000060 -10.123631 15.212754 12.004884 139.999802
56 139.999802 0.000000 -0.000060 -10.179876 15.461834 12.014520 139.999802
[Rope2_Seg05]
55 139.999985 -0.000060 0.000119 1.979769 -0.237399 -2.772716 139.999985
56 139.999985 -0.000060 0.000119 1.928727 -0.249939 -2.688688 139.999985
[Rope2_Seg06]
55 139.999893 -0.000030 -0.000119 0.305645 0.438742 -0.694527 139.999893
56 139.999893 -0.000030 -0.000119 0.192045 0.507073 -0.566258 139.999893
[Rope2_Seg07]
55 139.999893 0.000060 -0.000060 -0.275217 0.644640 0.014946 139.999893
56 139.999893 0.000060 -0.000060 -0.316154 0.664560 0.062471 139.999893
[Rope2_Seg09]
55 121.338966 0.000089 -0.000060 33.793236 -1.359788 -0.847141 121.338966
56 121.338966 0.000089 -0.000060 33.793236 -1.359788 -0.847141 121.338966
[R_mid_hand01]
55 104.680779 11.144459 -10.335981 -41.523792 25.424656 28.595957 105.778534
56 104.680779 11.144459 -10.335981 -41.523792 25.424656 28.595957 105.778534
[R_mid_hand02]
55 104.070427 2.443552 8.231699 72.847389 -32.746803 10.013901 104.424065
56 104.070427 2.443552 8.231699 72.847389 -32.746803 10.013901 104.424065
[R_mid_hand03]
55 106.028137 -11.221827 -5.996406 -167.901306 10.259192 -37.009720 106.788818
56 106.028137 -11.221827 -5.996406 -167.901306 10.259192 -37.009720 106.788818
[spine02]
55 129.756927 0.001550 0.000119 -0.245322 -4.052060 -4.355547 129.756927
56 129.756927 0.001550 0.000119 -0.245322 -4.052060 -4.355547 129.756927
[spine03]
55 78.613846 0.087372 -4.898873 0.207412 -2.089717 -0.432471 78.766380
56 78.613846 0.087372 -4.898873 0.207412 -2.089717 -0.432471 78.766380
[pelvis]
55 169.435242 0.051022 0.000000 -0.010007 -0.191417 -1.897554 169.435257
56 169.435242 0.051022 0.000000 -0.010007 -0.191417 -1.897554 169.435257
[null_rope03_connect]
55 -1.257226 -2.466202 137.391083 137.901260 -72.319244 -85.859032 137.418976
56 -1.257226 -2.466202 137.391083 137.882385 -72.374092 -86.281013 137.418976
[null_rope04_connect]
55 -1.259640 -2.480268 -137.844437 137.901260 -72.319244 -85.859032 137.872513
56 -1.259640 -2.480268 -137.844437 137.882385 -72.374092 -86.281013 137.872513
[Rope3_Seg01]
55 0.000000 0.000000 0.000000 158.813461 77.463829 -134.861832 0.000000
56 0.000000 0.000000 0.000000 155.639160 77.358406 -137.864532 0.000000
[Rope3_Seg02]
55 139.999924 -0.000119 0.000060 5.424184 10.496626 -3.139846 139.999924
56 139.999924 -0.000119 0.000060 5.621633 10.689776 -3.001030 139.999924
[Rope3_Seg03]
55 139.999924 -0.000119 0.000119 9.829079 17.046833 -5.824204 139.999924
56 139.999924 -0.000119 0.000119 10.267501 17.294699 -5.654518 139.999924
[Rope3_Seg04]
55 139.999924 0.000119 0.000000 12.750460 20.677010 -11.411969 139.999924
56 139.999924 0.000119 0.000000 13.434229 20.999788 -11.349271 139.999924
[Rope3_Seg05]
55 139.999924 -0.000238 0.000060 -4.405619 -13.061049 -2.089383 139.999924
56 139.999924 -0.000238 0.000060 -4.072533 -12.451482 -2.760198 139.999924
[Rope3_Seg06]
55 139.999893 -0.000119 -0.000060 -2.571218 -11.787308 -0.846878 139.999893
56 139.999893 -0.000119 -0.000060 -2.537694 -11.590953 -1.187697 139.999893
[Rope3_Seg07]
55 139.999771 0.000060 -0.000119 -0.153626 -5.171216 -1.714316 139.999771
56 139.999771 0.000060 -0.000119 -0.126213 -5.022679 -1.938416 139.999771
[Rope3_Seg08]
55 139.999985 -0.000060 0.000000 0.243826 -3.174242 -1.061420 139.999985
56 139.999985 -0.000060 0.000000 0.251766 -3.087307 -1.202435 139.999985
[Rope3_Seg09]
55 90.185997 -0.000179 -0.000060 89.793228 -1.359877 -0.847183 90.185997
56 90.185997 -0.000179 -0.000060 89.793228 -1.359877 -0.847183 90.185997
[R_rear_hand01]
55 103.366196 -6.073594 -10.757982 -161.551193 16.666374 -30.088671 104.101845
56 103.366196 -6.073594 -10.757982 -161.551193 16.666374 -30.088671 104.101845
[R_rear_hand02]
55 100.509819 12.039542 -7.992327 -34.280552 19.289745 28.875523 101.543350
56 100.509819 12.039542 -7.992327 -34.280552 19.289745 28.875523 101.543350
[R_rear_hand03]
55 101.539970 5.215704 5.435467 83.366440 -30.933914 7.284830 101.819031
56 101.539970 5.215704 5.435467 83.366440 -30.933914 7.284830 101.819031
[Rope4_Seg01]
55 0.000010 0.000038 -0.000114 -1.548221 59.853367 -166.042175 0.000121
56 0.000010 0.000038 -0.000114 -3.180917 60.409985 -167.702377 0.000121
[Rope4_Seg02]
55 139.999985 0.000060 0.000119 1.634656 -1.334763 11.731410 139.999985
56 139.999985 0.000060 0.000119 1.644517 -1.949204 11.842753 139.999985
[Rope4_Seg03]
55 139.999924 0.000000 -0.000238 0.773730 -2.610690 17.605663 139.999924
56 139.999924 0.000000 -0.000238 0.876289 -3.388597 17.690783 139.999924
[Rope4_Seg04]
55 139.999985 0.000000 0.000119 -1.007802 -2.240153 18.408361 139.999985
56 139.999985 0.000000 0.000119 -0.820009 -3.286492 19.022774 139.999985
[Rope4_Seg05]
55 139.999802 -0.000060 -0.000119 0.956141 9.024038 -5.903888 139.999802
56 139.999802 -0.000060 -0.000119 0.671554 8.670094 -5.241594 139.999802
[Rope4_Seg06]
55 139.999924 0.000000 0.000060 1.880396 8.119031 -7.119458 139.999924
56 139.999924 0.000000 0.000060 1.672494 8.601774 -7.581504 139.999924
[Rope4_Seg07]
55 139.999802 0.000000 0.000000 1.482302 4.962947 -3.202027 139.999802
56 139.999802 0.000000 0.000000 1.397791 5.179748 -3.297397 139.999802
[Rope4_Seg08]
55 139.999924 0.000000 0.000119 -0.460239 2.927194 -2.003974 139.999924
56 139.999924 0.000000 0.000119 -0.472726 3.159089 -2.129067 139.999924
[Rope4_Seg09]
55 90.185791 0.000060 0.000060 -135.617828 2.228885 0.850567 90.185791
56 90.185791 0.000060 0.000060 -135.617828 2.228885 0.850567 90.185791
[L_rear_hand01]
55 101.696655 -8.392275 -7.654577 -34.454281 -18.946800 151.655121 102.329041
56 101.696655 -8.392275 -7.654577 -34.454281 -18.946800 151.655121 102.329041
[L_rear_hand02]
55 102.726799 -1.568258 5.773216 83.407906 30.330435 172.796509 102.900848
56 102.726799 -1.568258 5.773216 83.407906 30.330435 172.796509 102.900848
[L_rear_hand03]
55 104.552910 9.721220 -10.420293 -161.379868 -16.473232 -150.512238 105.519653
56 104.552910 9.721220 -10.420293 -161.379868 -16.473232 -150.512238 105.519653
